/* XPM */
static char *_5bef65e57f548edb82ac9d205a3187duwNCVtzznsKmOtCi[] = {
/* columns rows colors chars-per-pixel */
"32 32 17 1 ",
"  c None",
". c #1E181F",
"X c #63152A",
"o c #78453C",
"O c #606C74",
"+ c #811F3C",
"@ c #B22940",
"# c #EF3545",
"$ c #9B5647",
"% c #A65B4B",
"& c #F65845",
"* c #C06853",
"= c #D8745B",
"- c #F8843F",
"; c #908C9E",
": c #AFBBC0",
"> c white",
/* pixels */
"                                ",
"                                ",
"                                ",
"             ......             ",
"           ..$=*-%*..           ",
"          .>: =-== ;O.          ",
"           .: %=%- ;.           ",
"           .:>>;;;;O.           ",
"            .OooooO.            ",
"            .:o*-o;.            ",
"            .:    ;.            ",
"           .:>>>   ;.           ",
"          .:>>>>    ;.          ",
"         .:>>>>>     ;.         ",
"        .> >>>        ;.        ",
"       .>  >           ;.       ",
"      .>     &&&&&#     ;.      ",
"     .>    &&########    ;.     ",
"     .>  &&############  ;.     ",
"     .>@&###############+;.     ",
"     .:@@##############@+;.     ",
"      .:@@@##########@@+;.      ",
"      .:@@@@@######@@@@X;.      ",
"       .:@@@@@@@@@@@@@X;.       ",
"        .:@@@@@@@@@@@X;.        ",
"         .;@@@@@@@@XX;.         ",
"          .;;+++XXX;;.          ",
"           ..;;;;;;..           ",
"             ......             ",
"                                ",
"                                ",
"                                "
};
