/* XPM */
static char *_a6acf74ca1a42edf9b59cb40f258392BPWiGmw6T1ig675b[] = {
/* columns rows colors chars-per-pixel */
"32 32 17 1 ",
"  c None",
". c black",
"X c #322825",
"o c #382E2A",
"O c #562F29",
"+ c #403430",
"@ c #483C38",
"# c #5F3D31",
"$ c #4D433F",
"% c #5C523C",
"& c #665C44",
"* c #6B5D59",
"= c #5C724F",
"- c #657659",
"; c #68795D",
": c #6E7F62",
"> c #748569",
/* pixels */
"                                ",
"                                ",
"                                ",
"                                ",
"             .....              ",
"            .#OOOO.             ",
"           .==#O#==.            ",
"          .===##====.           ",
"          .===#--===.           ",
"          .==-#::-==.           ",
"          .=-:#:::-=.           ",
"          .-:#:::::-.           ",
"          .-#::::::-.           ",
"          .-#:>>>::-.           ",
"          .=#:>>>:-=.           ",
"           .#-ooo-=.            ",
"          .ooooooooo.           ",
"         .@ooooooooo@.          ",
"         .@ooooooooo@.          ",
"         .@@ooooooo@@.          ",
"         .@@XoooooX@@.          ",
"         .@@.+++:+.@@.          ",
"         .@@.++:++.@@.          ",
"         ..@@+>>>+@@.           ",
"          .@&&&&&&&@.           ",
"          .-&&&%&&&-.           ",
"           .&%%.%%&.            ",
"           .&&. .&&.            ",
"           .;;. .$$.            ",
"          .:::. .***.           ",
"          ..... .....           ",
"                                "
};
