/* XPM */
static char *_31cacbaf4514306e1d46a16f7c68e6aDgVl9bykcCniwZ4k[] = {
/* columns rows colors chars-per-pixel */
"32 32 21 1 ",
"  c None",
". c black",
"X c #382E2A",
"o c #562F29",
"O c #403430",
"+ c #483C38",
"@ c #5F3D31",
"# c #4D433F",
"$ c #5C523C",
"% c #625841",
"& c #665C44",
"* c #6B5D59",
"= c #5C724F",
"- c #657659",
"; c #68795D",
": c #6E7F62",
"> c #812C21",
", c #748569",
"< c #88AA67",
"1 c #A0A782",
"2 c #BCC2A1",
/* pixels */
"                                ",
"                                ",
"                                ",
"                                ",
"             .....              ",
"            .@oooo.             ",
"           .@=@oo@=.            ",
"          .o@=@o@===.           ",
"          .o@=@@-===.           ",
"          .@=-@::-==.           ",
"          .=-:@:::-=.           ",
"          .-..:@:..-.           ",
"          .-2<:@:<2-.           ",
"          .:::::@:::.           ",
"          .=:::::@:=.           ",
"           .=1:1:1@.            ",
"          .+O=1>1>O+.           ",
"         .++OO=>>OO++.          ",
"         .o+OOOOOOO++.          ",
"         .ooOOOOOOO++.          ",
"         .,oXOO>O:X++.          ",
"         .+,.XXX;;.++.          ",
"         .++.XXX;X.++.          ",
"          .++XXXXX++..          ",
"          .++%&&&%++.           ",
"          .,,%&$&%,,.           ",
"           .%&$.$&%.            ",
"           .&&. .&&.            ",
"           .##. .;;.            ",
"          .**#. .;::.           ",
"          ..... .....           ",
"                                "
};
