/* XPM */
static char *f038ceaa7c174f77ac90a25ee03bec77UHC0t3lGf6IKJQId[] = {
/* columns rows colors chars-per-pixel */
"32 32 22 1 ",
"  c None",
". c black",
"X c #322825",
"o c #382E2A",
"O c #562F29",
"+ c #403430",
"@ c #483C38",
"# c #5F3D31",
"$ c #4D433F",
"% c #5C523C",
"& c #625841",
"* c #665C44",
"= c #6B5D59",
"- c #5C724F",
"; c #657659",
": c #68795D",
"> c #6E7F62",
", c #812C21",
"< c #748569",
"1 c #88AA67",
"2 c #A0A782",
"3 c #BCC2A1",
/* pixels */
"                                ",
"                                ",
"                                ",
"                                ",
"            .....               ",
"           .#OO##.              ",
"          .##OO#--.             ",
"         .#-#O#----.            ",
"         .--##;----.            ",
"         .-;#>>;;--.            ",
"         .;>#>>>>;-.            ",
"         ...>#...>-.            ",
"         .31>#13>>.             ",
"         .;>>#>>>>.             ",
"         .;>>>##>-.             ",
"         .-2>2>2#...            ",
"         ..-2,2,<+$$.           ",
"        .>Oo-,,$$$@@.           ",
"      ..+o:$$$$@@@XX.           ",
"     .ooo@@@@@@XXX+.            ",
"     .::.<<..,+++>+.            ",
"      .. .. .ooo::o.            ",
"             .oo:oo.            ",
"             .ooooo.            ",
"            .******%.           ",
"            .**%***%.           ",
"            .*&.***.            ",
"            .**.***.            ",
"            .$$.:::.            ",
"           .==$.>>>.            ",
"           .........            ",
"                                "
};
