/* XPM */
static char *c66c4b5fca1940e6e0c352a833c4dcc7vzHBYdNwxTjOWXZY[] = {
/* columns rows colors chars-per-pixel */
"32 32 23 1 ",
"  c None",
". c black",
"X c #322825",
"o c #382E2A",
"O c #562F29",
"+ c #403430",
"@ c #483C38",
"# c #5F3D31",
"$ c #4D433F",
"% c #5C523C",
"& c #625841",
"* c #665C44",
"= c #6B5D59",
"- c #5C724F",
"; c #657659",
": c #68795D",
"> c #6E7F62",
", c #812C21",
"< c #748569",
"1 c #798970",
"2 c #88AA67",
"3 c #A0A782",
"4 c #BCC2A1",
/* pixels */
"                                ",
"                                ",
"                                ",
"                                ",
"               .....            ",
"              .-#OOO.           ",
"             .O##OO#-.          ",
"            .OO#-#O#--.         ",
"            .O#--##;--.         ",
"            .#-;;>#>;-.         ",
"            .-;>>>#>>;.         ",
"            .->...>#...         ",
"             .>>42>#24.         ",
"             .>>>>>#>;.         ",
"             .->>>>>#;.         ",
"            ...-3>3>3#.         ",
"           .$$+<-3,3,..         ",
"           .@@OO1-,,oo+.        ",
"           .XXO<@$$$$oo+..      ",
"            .+XXX@@@@@@ooo.     ",
"            .++++>,..<<.::.     ",
"            .ooo::o. .. ..      ",
"            .ooo:o.             ",
"            .ooooo.             ",
"           .%******.            ",
"           .%***%**.            ",
"            .***.&*.            ",
"            .***.**.            ",
"            .$$$.::.            ",
"            .$==.:>>.           ",
"            .........           ",
"                                "
};
