/* XPM */
static char *result[] = {
/* columns rows colors chars-per-pixel */
"32 32 19 1 ",
"  c #1E181F",
". c #452B2B",
"X c #4B2E2D",
"o c #5C3C34",
"O c #654238",
"+ c #78453C",
"@ c #6F523D",
"# c #7B5A42",
"$ c #8E5645",
"% c #925846",
"& c #955A47",
"* c #A26B4D",
"= c #AC6C51",
"- c #A87150",
"; c #BF8159",
": c #C2845B",
"> c #C5875C",
", c #D99D65",
"< c None",
/* pixels */
"<<<<<<<<<<<<<<<<<<<<<<<<<<<<<<<<",
"<<<<<<<<<<<<<<<<<<<<<<<<<<<<<<<<",
"<<<<<<<<<<<<<<<<<<<<<<<<<<<<<<<<",
"<<<<<<<<<<<<<<<<<<<<<<<<<<<<<<<<",
"<<<<<<<<<<<<<<<<<<<<<<<<<<<<<<<<",
"<<<<<<<<<<<<<<<<<<<<<<<<<<<<<<<<",
"<<<<<<<<<<<<<<<<<<<<<@<<<<<<<<<<",
"<<<<<<<<<<@<<<<<<<<< , <<<<<<<<<",
"<<<<<<<<< , <<<<<<<<@, <<<<<<<<<",
"<<<<<<<<< ,.<<<<<<@@,, <<<<<<<<<",
"<<<<<<<<< ,+ooo@@@,,,,o<<<<<<<<<",
"<<<<<<<<< ,*&=;,,,,,,,= <<<<<<<<",
"<<<<<<<<< ,,$;,,,,,,,,;o<<<<<<<<",
"<<<<<<<<<@,,;>,,,,,,,,,= <<<<<<<",
"<<<<<<<< ,,,,=,,,,,,,,,;o<<<<<<<",
"<<<<<<<<@,,,,;>,,,,,,,,,=o<<<<<<",
"<<<<<<< ,,:,,,=,,,,,,,,,:=O<<<<<",
"<<<<<<<#,,%,,,::,,,,,,,,,== <<<<",
"<<<<<< ,,,+:,,,=,,,,,,,,,:=O<<<<",
"<<<<<<#,,,+=,,,:-,,,,,,,,:== <<<",
"<<<<< ,,,,X=,,,,%-:,,,,,:=== <<<",
"<<<<<#,,,#<O:,,,:%%::,,:==OO<<<<",
"<<<< ,,,, < =,,,,=%%=::==O<<<<<<",
"<<<<#,,,: < =,,,:==%%==OO<<<<<<<",
"<<< ::::O<<<O:::====+OO<<<<<<<<<",
"<<< OOOO <<< OOOOOOOX<<<<<<<<<<<",
"<<<<<<<<<<<<<<<<<<<<<<<<<<<<<<<<",
"<<<<<<<<<<<<<<<<<<<<<<<<<<<<<<<<",
"<<<<<<<<<<<<<<<<<<<<<<<<<<<<<<<<",
"<<<<<<<<<<<<<<<<<<<<<<<<<<<<<<<<",
"<<<<<<<<<<<<<<<<<<<<<<<<<<<<<<<<",
"<<<<<<<<<<<<<<<<<<<<<<<<<<<<<<<<"
};
